<svg version="1.1" id="Layer_1" xmlns="http://www.w3.org/2000/svg" xmlns:xlink="http://www.w3.org/1999/xlink" x="0px" y="0px"
	 width="100%" viewBox="0 0 512 512" enable-background="new 0 0 512 512" xml:space="preserve">
<path fill="#000000" opacity="1.000000" stroke="none" 
	d="
M340.000000,513.000000 
	C226.694199,513.000000 113.888390,513.000000 1.041291,513.000000 
	C1.041291,342.402496 1.041291,171.804993 1.041291,1.103745 
	C171.555817,1.103745 342.111694,1.103745 512.833801,1.103745 
	C512.833801,171.666534 512.833801,342.333252 512.833801,513.000000 
	C455.471649,513.000000 397.985809,513.000000 340.000000,513.000000 
M187.997955,309.499023 
	C187.998749,313.831970 187.934464,318.166107 188.014984,322.497559 
	C188.150070,329.765228 189.731308,336.352509 196.721924,340.304382 
	C204.110458,344.481262 211.024200,343.058746 217.697189,338.610596 
	C250.805695,316.540619 283.925171,294.487091 317.010193,272.382019 
	C328.698212,264.572906 328.985138,250.077042 317.314392,242.225937 
	C283.613647,219.554901 249.830750,197.003296 215.862274,174.737122 
	C212.411652,172.475235 207.288376,171.096191 203.282852,171.674194 
	C192.806183,173.186066 188.027969,179.843628 188.016617,191.008926 
	C187.976776,230.172379 187.999176,269.335907 187.997955,309.499023 
M113.440178,309.000031 
	C114.939346,308.999084 116.439049,308.971344 117.937592,309.001434 
	C130.267700,309.248901 138.515045,300.575653 138.179230,289.046295 
	C137.549042,267.410553 137.806747,245.741013 138.078079,224.090332 
	C138.213196,213.308273 130.637238,205.246918 120.007294,205.111267 
	C97.357536,204.822189 74.700249,204.877045 52.048744,205.085220 
	C41.908775,205.178406 34.646370,214.744919 34.822395,222.734451 
	C35.328590,245.709930 34.805096,268.707153 35.198044,291.687073 
	C35.262241,295.441376 37.366535,299.516541 39.513123,302.799133 
	C43.048321,308.205170 49.135712,308.902100 54.990635,308.944611 
	C74.145164,309.083740 93.301331,308.998779 113.440178,309.000031 
M376.002075,230.521454 
	C376.002289,250.344437 375.990021,270.167419 376.007629,289.990387 
	C376.017487,301.068298 382.900757,308.737793 394.007324,308.888062 
	C416.324860,309.190002 438.651428,309.156494 460.970093,308.899170 
	C472.010132,308.771912 479.532440,300.197723 479.205078,289.698883 
	C478.525330,267.898132 478.534088,246.047104 479.201447,224.245575 
	C479.522369,213.761719 471.883728,205.113266 460.440369,205.049164 
	C438.452576,204.925964 416.462799,204.911728 394.475494,205.073303 
	C386.978607,205.128403 380.511047,208.361801 377.609711,215.350098 
	C375.856781,219.572281 376.458405,224.772003 376.002075,230.521454 
M398.566711,155.000000 
	C419.551300,154.999680 440.535950,155.017929 461.520508,154.991272 
	C472.157410,154.977753 478.975372,148.191528 478.989044,137.587860 
	C479.018219,114.937866 479.015900,92.287804 478.991577,69.637794 
	C478.979370,58.276775 472.763184,52.024387 461.453827,52.010067 
	C439.136902,51.981800 416.815002,52.279633 394.505066,51.884235 
	C383.179871,51.683517 375.807526,59.888565 375.928040,70.506882 
	C376.177521,92.487900 375.991821,114.473747 376.023224,136.457550 
	C376.025787,138.269516 376.071228,140.144577 376.518280,141.881836 
	C378.479706,149.504166 384.373962,155.997314 398.566711,155.000000 
M436.500000,359.000000 
	C422.178619,359.001740 407.856903,358.945984 393.535919,359.024506 
	C383.226898,359.080994 376.052979,366.264496 376.024567,376.596283 
	C375.962280,399.243835 375.954559,421.891907 376.029022,444.539398 
	C376.063782,455.109009 383.025604,461.978424 393.518341,461.990479 
	C416.166046,462.016479 438.813873,462.017548 461.461578,461.990540 
	C472.789185,461.977051 478.976562,455.756378 478.990295,444.368439 
	C479.017395,421.887238 479.011871,399.406006 478.993195,376.924774 
	C478.983826,365.639862 472.392517,359.083435 460.980316,359.012115 
	C453.153839,358.963226 445.326782,359.001007 436.500000,359.000000 
M101.499969,155.000000 
	C107.992317,154.997314 114.486061,155.079224 120.976669,154.971680 
	C130.233826,154.818314 137.903534,147.403885 137.950348,138.240326 
	C138.068588,115.101585 138.074142,91.961372 137.948868,68.822708 
	C137.896179,59.094025 130.532425,52.028904 120.805046,52.013889 
	C97.998680,51.978683 75.192192,51.980404 52.385818,52.011929 
	C41.494598,52.026985 35.028835,58.464092 35.012760,69.316986 
	C34.978981,92.123352 34.979725,114.929832 35.012745,137.736206 
	C35.027946,148.236572 41.898968,154.974335 52.556572,154.992233 
	C68.537674,155.019058 84.518845,154.999710 101.499969,155.000000 
M95.500000,462.000000 
	C103.823532,461.999542 112.147141,462.020050 120.470589,461.993256 
	C130.787369,461.960022 137.938690,454.914734 137.971649,444.513580 
	C138.043381,421.873749 138.036011,399.233398 137.976028,376.593536 
	C137.949005,366.398071 130.558548,359.047760 120.320343,359.022003 
	C97.513962,358.964630 74.707275,358.972565 51.900837,359.017487 
	C41.984833,359.037018 35.035839,366.002991 35.017124,375.934357 
	C34.973839,398.907257 34.976429,421.880371 35.014481,444.853302 
	C35.032124,455.504883 41.450272,461.949615 52.049931,461.985718 
	C66.199806,462.033905 80.349960,461.999146 95.500000,462.000000 
z"/>
<path fill="#464646" opacity="1.000000" stroke="none" 
	d="
M187.997955,308.999207 
	C187.999176,269.335907 187.976776,230.172379 188.016617,191.008926 
	C188.027969,179.843628 192.806183,173.186066 203.282852,171.674194 
	C207.288376,171.096191 212.411652,172.475235 215.862274,174.737122 
	C249.830750,197.003296 283.613647,219.554901 317.314392,242.225937 
	C328.985138,250.077042 328.698212,264.572906 317.010193,272.382019 
	C283.925171,294.487091 250.805695,316.540619 217.697189,338.610596 
	C211.024200,343.058746 204.110458,344.481262 196.721924,340.304382 
	C189.731308,336.352509 188.150070,329.765228 188.014984,322.497559 
	C187.934464,318.166107 187.998749,313.831970 187.997955,308.999207 
z"/>
<path fill="#464646" opacity="1.000000" stroke="none" 
	d="
M112.948517,309.000000 
	C93.301331,308.998779 74.145164,309.083740 54.990635,308.944611 
	C49.135712,308.902100 43.048321,308.205170 39.513123,302.799133 
	C37.366535,299.516541 35.262241,295.441376 35.198044,291.687073 
	C34.805096,268.707153 35.328590,245.709930 34.822395,222.734451 
	C34.646370,214.744919 41.908775,205.178406 52.048744,205.085220 
	C74.700249,204.877045 97.357536,204.822189 120.007294,205.111267 
	C130.637238,205.246918 138.213196,213.308273 138.078079,224.090332 
	C137.806747,245.741013 137.549042,267.410553 138.179230,289.046295 
	C138.515045,300.575653 130.267700,309.248901 117.937592,309.001434 
	C116.439049,308.971344 114.939346,308.999084 112.948517,309.000000 
z"/>
<path fill="#464646" opacity="1.000000" stroke="none" 
	d="
M376.002075,230.026978 
	C376.458405,224.772003 375.856781,219.572281 377.609711,215.350098 
	C380.511047,208.361801 386.978607,205.128403 394.475494,205.073303 
	C416.462799,204.911728 438.452576,204.925964 460.440369,205.049164 
	C471.883728,205.113266 479.522369,213.761719 479.201447,224.245575 
	C478.534088,246.047104 478.525330,267.898132 479.205078,289.698883 
	C479.532440,300.197723 472.010132,308.771912 460.970093,308.899170 
	C438.651428,309.156494 416.324860,309.190002 394.007324,308.888062 
	C382.900757,308.737793 376.017487,301.068298 376.007629,289.990387 
	C375.990021,270.167419 376.002289,250.344437 376.002075,230.026978 
z"/>
<path fill="#464646" opacity="1.000000" stroke="none" 
	d="
M398.079895,154.999985 
	C384.373962,155.997314 378.479706,149.504166 376.518280,141.881836 
	C376.071228,140.144577 376.025787,138.269516 376.023224,136.457550 
	C375.991821,114.473747 376.177521,92.487900 375.928040,70.506882 
	C375.807526,59.888565 383.179871,51.683517 394.505066,51.884235 
	C416.815002,52.279633 439.136902,51.981800 461.453827,52.010067 
	C472.763184,52.024387 478.979370,58.276775 478.991577,69.637794 
	C479.015900,92.287804 479.018219,114.937866 478.989044,137.587860 
	C478.975372,148.191528 472.157410,154.977753 461.520508,154.991272 
	C440.535950,155.017929 419.551300,154.999680 398.079895,154.999985 
z"/>
<path fill="#464646" opacity="1.000000" stroke="none" 
	d="
M437.000000,359.000000 
	C445.326782,359.001007 453.153839,358.963226 460.980316,359.012115 
	C472.392517,359.083435 478.983826,365.639862 478.993195,376.924774 
	C479.011871,399.406006 479.017395,421.887238 478.990295,444.368439 
	C478.976562,455.756378 472.789185,461.977051 461.461578,461.990540 
	C438.813873,462.017548 416.166046,462.016479 393.518341,461.990479 
	C383.025604,461.978424 376.063782,455.109009 376.029022,444.539398 
	C375.954559,421.891907 375.962280,399.243835 376.024567,376.596283 
	C376.052979,366.264496 383.226898,359.080994 393.535919,359.024506 
	C407.856903,358.945984 422.178619,359.001740 437.000000,359.000000 
z"/>
<path fill="#464646" opacity="1.000000" stroke="none" 
	d="
M100.999977,155.000000 
	C84.518845,154.999710 68.537674,155.019058 52.556572,154.992233 
	C41.898968,154.974335 35.027946,148.236572 35.012745,137.736206 
	C34.979725,114.929832 34.978981,92.123352 35.012760,69.316986 
	C35.028835,58.464092 41.494598,52.026985 52.385818,52.011929 
	C75.192192,51.980404 97.998680,51.978683 120.805046,52.013889 
	C130.532425,52.028904 137.896179,59.094025 137.948868,68.822708 
	C138.074142,91.961372 138.068588,115.101585 137.950348,138.240326 
	C137.903534,147.403885 130.233826,154.818314 120.976669,154.971680 
	C114.486061,155.079224 107.992317,154.997314 100.999977,155.000000 
z"/>
<path fill="#464646" opacity="1.000000" stroke="none" 
	d="
M95.000000,462.000000 
	C80.349960,461.999146 66.199806,462.033905 52.049931,461.985718 
	C41.450272,461.949615 35.032124,455.504883 35.014481,444.853302 
	C34.976429,421.880371 34.973839,398.907257 35.017124,375.934357 
	C35.035839,366.002991 41.984833,359.037018 51.900837,359.017487 
	C74.707275,358.972565 97.513962,358.964630 120.320343,359.022003 
	C130.558548,359.047760 137.949005,366.398071 137.976028,376.593536 
	C138.036011,399.233398 138.043381,421.873749 137.971649,444.513580 
	C137.938690,454.914734 130.787369,461.960022 120.470589,461.993256 
	C112.147141,462.020050 103.823532,461.999542 95.000000,462.000000 
z"/>
</svg>